/vscmnt/brussel_pixiu_data/_data_brussel/112/vsc11236/PredSimResults/SUBJ07mtu3D/worker4.mot
version=1
nRows=4
nColumns=50
inDegrees=yes
endheader
                time	         pelvis_tilt	         pelvis_list	     pelvis_rotation	           pelvis_tx	           pelvis_ty	           pelvis_tz	       hip_flexion_r	     hip_adduction_r	      hip_rotation_r	        knee_angle_r	       ankle_angle_r	         mtp_angle_r	       hip_flexion_l	     hip_adduction_l	      hip_rotation_l	        knee_angle_l	       ankle_angle_l	         mtp_angle_l	    lumbar_extension	      lumbar_bending	     lumbar_rotation	 ercspn_r/activation	 intobl_r/activation	 extobl_r/activation	    abd_r/activation	    add_r/activation	hamstrings_r/activation	bifemsh_r/activation	glut_max_r/activation	iliopsoas_r/activation	rect_fem_r/activation	  vasti_r/activation	gastroc_r/activation	 soleus_r/activation	tib_ant_r/activation	 ercspn_l/activation	 intobl_l/activation	 extobl_l/activation	    abd_l/activation	    add_l/activation	hamstrings_l/activation	bifemsh_l/activation	glut_max_l/activation	iliopsoas_l/activation	rect_fem_l/activation	  vasti_l/activation	gastroc_l/activation	 soleus_l/activation	tib_ant_l/activation	
          1.10285203	         -3.96013648	          0.39660434	          8.64109869	          1.34547947	          0.85035051	         -0.01288296	         29.99961569	         -2.70875086	         -4.42225945	         -7.33813867	          3.27262619	          0.26766053	        -14.58586088	          0.74084645	          4.07335879	         -8.99014583	          7.68833631	         27.97167220	        -11.54553280	         -2.16547059	         -1.33532869	          0.12268235	          0.13635376	          0.01000554	          0.02092346	          0.13175249	          0.06667505	          0.12238458	          0.08155613	          0.03846623	          0.01183006	          0.01000151	          0.01000317	          0.01000096	          0.38881962	          0.12978761	          0.01000145	          0.01000147	          0.03396573	          0.01420102	          0.01749521	          0.13718421	          0.01963295	          0.15931638	          0.01184445	          0.01183731	          0.16184054	          0.26638353	          0.01676591	
          1.11388055	         -3.95181351	          0.44714383	          8.63965500	          1.36130600	          0.84876027	         -0.01264876	         29.79323159	         -2.50375739	         -4.04059526	         -8.85839038	          2.95929793	          0.24986867	        -15.13506514	          0.67379030	          3.73964831	         -9.91410325	          6.75606452	         29.48035745	        -11.41854503	         -1.78152450	         -1.56375644	          0.10363452	          0.12305159	          0.01000134	          0.01937480	          0.11129673	          0.06310631	          0.12169322	          0.13204418	          0.03249380	          0.01000292	          0.01000105	          0.01583008	          0.01184048	          0.42096440	          0.14304702	          0.01000060	          0.01000704	          0.02869197	          0.02971714	          0.01481023	          0.11588618	          0.01658494	          0.13458983	          0.01000831	          0.01000196	          0.13671194	          0.24782874	          0.01416273	
          1.12490907	         -3.93907730	          0.49621539	          8.58715004	          1.37725177	          0.84738289	         -0.01232957	         29.50408329	         -2.34762801	         -3.68682496	        -10.27589477	          2.57065580	          0.24446212	        -15.52064006	          0.62218782	          3.36219026	        -11.14553334	          5.73516281	         30.91871132	        -11.29050457	         -1.39523527	         -1.78243733	          0.13873524	          0.10394607	          0.01000146	          0.10436502	          0.12838833	          0.05671288	          0.10301824	          0.13153156	          0.02744874	          0.01000156	          0.01000035	          0.01337246	          0.01000219	          0.47926431	          0.15565474	          0.01000047	          0.01000164	          0.02423705	          0.02510425	          0.01255996	          0.09789470	          0.01401030	          0.11370995	          0.01002501	          0.01000299	          0.11548493	          0.22662661	          0.01196376	
          1.13593759	         -3.92351983	          0.56195529	          8.48733217	          1.39312902	          0.84638305	         -0.01191356	         29.21958210	         -2.20940519	         -3.40538646	        -11.68080247	          2.15636536	          0.22479290	        -15.66726706	          0.60511172	          2.95384473	        -12.78579003	          4.59579106	         32.23407143	        -11.18263041	         -1.02680114	         -1.99015065	          0.14959364	          0.08780673	          0.01000135	          0.15145149	          0.15352460	          0.04870040	          0.08702480	          0.15774814	          0.02318700	          0.01000269	          0.01000117	          0.01129698	          0.01000107	          0.50077091	          0.19262399	          0.01000053	          0.01000160	          0.02047384	          0.02903238	          0.01128338	          0.08269671	          0.01183581	          0.09606009	          0.01002089	          0.01000463	          0.09755379	          0.19408937	          0.01010627	
